<?xml version="1.0" encoding="UTF-8"?>
<svg version="1.1" xmlns="http://www.w3.org/2000/svg" width="1024" height="1024">
<path d="M0 0 C337.92 0 675.84 0 1024 0 C1024 337.92 1024 675.84 1024 1024 C686.08 1024 348.16 1024 0 1024 C0 686.08 0 348.16 0 0 Z " fill="#FCFCFC" transform="translate(0,0)"/>
<path d="M0 0 C0.83842884 -0.00445784 1.67685768 -0.00891569 2.54069346 -0.01350862 C3.45673061 -0.01332426 4.37276776 -0.01313989 5.31656361 -0.01294994 C6.29368378 -0.01662663 7.27080395 -0.02030332 8.27753383 -0.02409142 C11.56079746 -0.03512887 14.84402944 -0.03897221 18.12730885 -0.04278088 C20.47779917 -0.04904545 22.8282885 -0.05569225 25.17877674 -0.0626936 C32.23838953 -0.08191924 39.29799874 -0.09252129 46.35763118 -0.10142139 C49.68426287 -0.10580752 53.01089301 -0.11117451 56.33752346 -0.11641026 C67.39945838 -0.13342002 78.46139233 -0.14791367 89.52333832 -0.155159 C92.39263059 -0.15706881 95.26192285 -0.15898915 98.1312151 -0.16094494 C98.84433984 -0.16142868 99.55746459 -0.16191242 100.29219917 -0.16241082 C111.84159719 -0.17070926 123.39089157 -0.19604412 134.94024434 -0.22852562 C146.8044167 -0.26161983 158.66853644 -0.27960987 170.5327552 -0.28280324 C177.19137796 -0.28496609 183.84986683 -0.29412664 190.5084486 -0.31926441 C196.77359152 -0.34253476 203.03846258 -0.3467823 209.3036375 -0.33650303 C211.600989 -0.33600732 213.89835383 -0.34233796 216.19566441 -0.35605907 C219.33679395 -0.37376785 222.47694672 -0.36667613 225.61807728 -0.35352612 C226.52296082 -0.36449536 227.42784436 -0.37546461 228.36014861 -0.38676625 C236.5662563 -0.30406701 243.41318875 2.34897282 249.59727955 7.82172108 C250.30497486 8.42371326 251.01267017 9.02570545 251.7418108 9.64593983 C256.99800673 16.04784577 258.37708248 22.70438228 258.28598499 30.80498219 C258.29151939 31.73666629 258.29705379 32.66835039 258.30275589 33.62826735 C258.31629198 36.72810399 258.30143127 39.8271256 258.28648853 42.92694569 C258.29027428 45.15832834 258.29577643 47.38970864 258.30286121 49.62108326 C258.31680031 55.66658381 258.30565628 61.71179926 258.28915 67.75728393 C258.27527675 74.09204333 258.28176224 80.42678655 258.28528309 86.76155567 C258.2879836 97.39974651 258.27461204 108.03781296 258.25133228 118.67596912 C258.22741952 129.60472271 258.22032681 140.53332689 258.23082447 151.46210194 C258.24347362 164.65422828 258.24092253 177.84626828 258.22516537 191.03839779 C258.21941706 196.06806078 258.21947919 201.09767375 258.22423077 206.12733746 C258.22901475 212.05439184 258.21883982 217.98124032 258.19727612 223.90825558 C258.19172721 226.07939554 258.19122546 228.25055537 258.19622898 230.42169666 C258.20221713 233.39351588 258.18960897 236.36471299 258.1724596 239.33647633 C258.18147467 240.61427941 258.18147467 240.61427941 258.19067186 241.91789669 C258.09039597 251.52466037 255.77628462 259.2298572 249.00352955 266.14984608 C242.07506573 272.34642992 236.49380651 273.87363189 227.15196705 273.48187733 C218.46640396 272.58510805 212.69393134 269.63161422 206.78477955 263.13422108 C202.50282575 257.31769424 201.65864113 251.87874093 201.66452503 244.80040455 C201.66315037 243.52299397 201.6617757 242.24558338 201.66035938 240.92946339 C201.66389807 239.52139735 201.66753288 238.11333156 201.67125416 236.705266 C201.67153635 235.2168627 201.67137767 233.72845926 201.67081165 232.24005604 C201.67052492 228.20534461 201.67640167 224.17066295 201.68338561 220.13595843 C201.68963973 215.91722595 201.69022458 211.69849276 201.69141102 207.47975636 C201.69451826 199.49361567 201.70272348 191.50748868 201.71276051 183.52135402 C201.72394048 174.42830534 201.72943685 165.335256 201.73445594 156.24220216 C201.74490659 137.53953404 201.76249429 118.83687866 201.78477955 100.13422108 C196.25515697 104.85469849 191.01007631 109.7735634 185.89122486 114.93443775 C185.13866035 115.6889701 184.38609585 116.44350244 183.61072636 117.2208994 C181.10905649 119.73024075 178.61100865 122.24315648 176.11290455 124.75604725 C174.31216688 126.56362065 172.51117555 128.37094138 170.70995045 130.17802906 C166.84115687 134.0601201 162.97377447 137.94360875 159.10741138 141.82812023 C152.99272177 147.97112051 146.87216986 154.10826194 140.75059986 160.24440479 C138.65262176 162.3475061 136.55466914 164.45063283 134.45671558 166.55375862 C133.93255833 167.0792019 133.40840108 167.60464519 132.86836028 168.14601099 C126.91391835 174.11515985 120.96036908 180.08519853 115.0074358 186.05585194 C114.46378518 186.6011173 113.92013455 187.14638267 113.36000967 187.70817123 C104.54130142 196.55344143 95.72821542 205.40429606 86.91672277 214.25675353 C77.85656068 223.35867578 68.78873219 232.4529116 59.71418858 241.54049569 C54.12385026 247.13941788 48.53979656 252.74446204 42.96372223 258.35759077 C38.69114514 262.65735296 34.40813419 266.94656541 30.12115955 271.23197842 C28.36652181 272.98931286 26.61531733 274.75008308 24.86783314 276.51453114 C22.48049723 278.92403259 20.08109713 281.32085165 17.67833424 283.71495533 C16.99115944 284.41446361 16.30398464 285.11397189 15.59598637 285.8346774 C11.33630067 290.04635555 7.26299749 292.75406914 1.78477955 295.13422108 C1.09700806 295.49155659 0.40923656 295.84889211 -0.29937649 296.21705598 C-5.67367509 298.78987465 -12.90966164 297.53720736 -18.46522045 296.00922108 C-23.63649698 293.84093663 -27.13918453 290.73241723 -31.11902905 286.90399647 C-31.77079302 286.28595426 -32.42255699 285.66791204 -33.09407139 285.03114128 C-40.34755816 278.11977268 -47.43450405 271.04108533 -54.50428295 263.94281483 C-55.90554002 262.53968474 -57.30702391 261.13678115 -58.70872021 259.73408985 C-62.34862459 256.09042033 -65.98551578 252.44375848 -69.62171459 248.79639149 C-73.33202254 245.07577373 -77.04523034 241.35805242 -80.7581892 237.64008045 C-86.74012776 231.64941768 -92.72035766 225.65705598 -98.69822216 219.66232777 C-99.72714539 218.63056521 -100.75618702 217.59892072 -101.78536892 216.56741619 C-103.16639845 215.18315724 -104.54682339 213.79829519 -105.92722607 212.41341114 C-107.60846997 210.73863675 -109.31201459 209.08617335 -111.02772045 207.44672108 C-113.21522045 205.13422108 -113.21522045 205.13422108 -113.21522045 203.13422108 C-117.17048985 205.30282576 -120.12792791 207.80123247 -123.3050642 210.99359608 C-123.77207241 211.46106251 -124.23908062 211.92852894 -124.72024059 212.41016102 C-125.70328915 213.39621622 -126.68392084 214.38468625 -127.66224194 215.37543201 C-129.13974217 216.87108336 -130.62498117 218.35868119 -132.11170483 219.84515858 C-136.14415371 223.89445837 -140.13038947 227.93591534 -143.7816267 232.33734608 C-144.58471264 233.26031483 -145.38779858 234.18328358 -146.21522045 235.13422108 C-146.87522045 235.13422108 -147.53522045 235.13422108 -148.21522045 235.13422108 C-148.44209545 235.71172108 -148.66897045 236.28922108 -148.90272045 236.88422108 C-150.56248391 239.72952986 -152.63588712 241.07075442 -155.21522045 243.13422108 C-157.08199095 245.22629147 -158.88276285 247.35997104 -160.6644392 249.52484608 C-161.17619701 250.05593983 -161.68795483 250.58703358 -162.21522045 251.13422108 C-162.87522045 251.13422108 -163.53522045 251.13422108 -164.21522045 251.13422108 C-164.46021534 251.70356153 -164.70521023 252.27290197 -164.9576292 252.85949516 C-166.43809848 255.53736194 -168.17876039 257.35857248 -170.33668041 259.5298357 C-171.20005016 260.40318058 -172.06341991 261.27652546 -172.95295238 262.17633533 C-173.91200763 263.13628635 -174.87117902 264.09612133 -175.83045483 265.05585194 C-176.83953566 266.07255647 -177.84821297 267.08966164 -178.85651684 268.10713673 C-181.5957886 270.86834701 -184.3415992 273.62296283 -187.08931828 276.37576461 C-188.8080655 278.09815796 -190.52550775 279.82184179 -192.24251842 281.54596615 C-198.23974045 287.56768613 -204.2426659 293.58365954 -210.2503767 299.59491444 C-215.83802165 305.18618882 -221.41241743 310.79043683 -226.98087358 316.4008159 C-231.77041955 321.22514341 -236.56962897 326.03971656 -241.37624884 330.84703261 C-244.24305268 333.71462696 -247.10579469 336.58600277 -249.95867443 339.46745586 C-252.64642286 342.18151773 -255.34607371 344.88316712 -258.05498028 347.57610607 C-259.04204427 348.56136576 -260.0249275 349.55083641 -261.00303936 350.54498386 C-268.89304038 358.55628857 -277.17107541 365.2033041 -288.84022045 365.38422108 C-299.01799279 365.22500202 -304.28844112 362.73732103 -311.46522045 355.48578358 C-313.34537066 352.95933173 -313.86489292 351.23243019 -314.21522045 348.13422108 C-314.87522045 348.13422108 -315.53522045 348.13422108 -316.21522045 348.13422108 C-318.36537457 340.92690446 -318.13347565 332.03191518 -315.21522045 325.13422108 C-310.13827737 316.86336778 -302.59102665 310.24365277 -295.76185131 303.45380116 C-294.38935619 302.08187086 -293.01730267 300.70949867 -291.64565563 299.33672047 C-287.93538161 295.62587445 -284.21898819 291.92121296 -280.50144172 288.21765447 C-276.60577252 284.33453024 -272.71580684 280.44570083 -268.82522106 276.55748463 C-261.45823664 269.19670849 -254.08617232 261.84104207 -246.7122522 254.48721474 C-238.33534879 246.13264628 -229.96410277 237.77241904 -221.59334266 229.41169608 C-207.28503516 215.12074274 -192.97251022 200.83402472 -178.65525341 186.55203724 C-178.05080554 185.94906856 -177.44635767 185.34609988 -176.8235932 184.72485942 C-175.71472553 183.6187286 -174.60582751 182.51262821 -173.49689049 181.40656692 C-171.15936784 179.07488132 -168.8230404 176.74201935 -166.48849869 174.40734863 C-164.23519092 172.15419022 -161.97419933 169.90900693 -159.7113142 167.66547108 C-158.02505205 165.98845233 -156.33885589 164.31136722 -154.65272045 162.63422108 C-153.80258373 161.79246326 -152.95244701 160.95070545 -152.07654858 160.08343983 C-151.25477123 159.26488514 -150.43299389 158.44633045 -149.5863142 157.60297108 C-148.8430891 156.8649828 -148.09986401 156.12699451 -147.33411694 155.36664295 C-145.12589229 153.11546248 -145.12589229 153.11546248 -143.06702709 150.3549242 C-142.4559309 149.62209217 -141.84483471 148.88926014 -141.21522045 148.13422108 C-140.55522045 148.13422108 -139.89522045 148.13422108 -139.21522045 148.13422108 C-138.88522045 147.14422108 -138.55522045 146.15422108 -138.21522045 145.13422108 C-136.10584545 143.16156483 -136.10584545 143.16156483 -133.46522045 141.07172108 C-132.6041267 140.37949451 -131.74303295 139.68726795 -130.85584545 138.97406483 C-123.81876516 134.07101036 -116.46080139 134.49535892 -108.21522045 135.13422108 C-93.05991628 137.92262676 -79.8606055 156.34023922 -69.43397045 166.78265858 C-67.84659159 168.36936223 -66.25906445 169.95591755 -64.67139721 171.54233265 C-61.36862523 174.84364087 -58.0676422 178.14672439 -54.76795483 181.45111561 C-50.54372549 185.68107438 -46.31497734 189.9064828 -42.08490276 194.13059521 C-38.81629646 197.395588 -35.55007544 200.66295859 -32.28457165 203.93105412 C-30.72561502 205.49067612 -29.16591991 207.04956032 -27.60546398 208.60768223 C-25.43063424 210.7799689 -23.25904124 212.95544098 -21.08826733 215.13177967 C-20.4482478 215.76977497 -19.80822826 216.40777027 -19.1488142 217.06509876 C-15.95028347 220.27881411 -12.96839072 223.51866543 -10.21522045 227.13422108 C-5.82466502 226.69368697 -3.42547557 223.75401323 -0.49087048 220.77063465 C0.07663317 220.20569428 0.64413682 219.6407539 1.22883755 219.05869412 C3.13286476 217.15961689 5.02595642 215.24999916 6.91930103 213.34027576 C8.28057484 211.97815591 9.64250926 210.61669598 11.00505543 209.25584888 C14.70806549 205.55370145 18.40173522 201.84235875 22.09384131 198.12934113 C25.95787685 194.24656551 29.8303962 190.37227047 33.70203114 186.49707508 C41.040153 179.14961806 48.37059529 171.79454823 55.69832712 164.43673062 C64.01942946 156.08219665 72.34895858 147.73608646 80.67925251 139.39071894 C94.92141894 125.12248533 109.15722575 110.84793225 123.3859911 96.56633472 C123.98758755 95.96251949 124.58918401 95.35870425 125.20901066 94.73659158 C126.3127099 93.628787 127.4163635 92.52093696 128.51995844 91.41302848 C137.05900165 82.84185453 137.05900165 82.84185453 140.28477955 79.69672108 C142.86758022 77.124814 142.86758022 77.124814 145.28477955 74.07172108 C147.60772969 71.34225466 149.96927601 69.32405716 152.78477955 67.13422108 C153.11477955 66.47422108 153.44477955 65.81422108 153.78477955 65.13422108 C154.44477955 65.13422108 155.10477955 65.13422108 155.78477955 65.13422108 C156.11477955 64.14422108 156.44477955 63.15422108 156.78477955 62.13422108 C158.34727955 60.44672108 158.34727955 60.44672108 159.78477955 59.13422108 C158.94363165 59.13883004 158.10248375 59.14343901 157.23584652 59.14818764 C136.74493092 59.25873115 116.2540669 59.34140894 95.76291561 59.39328194 C85.85342781 59.41903576 75.94413937 59.45413226 66.03477955 59.51141834 C57.395219 59.56133979 48.75580288 59.5935326 40.1161021 59.60466355 C35.5436886 59.61116753 30.97168817 59.62639457 26.39940739 59.66287136 C22.09015023 59.69696921 17.7814738 59.70724643 13.47209454 59.69975948 C11.89595661 59.7011279 10.31979799 59.71097826 8.74377728 59.73024845 C-1.11500857 59.84481582 -9.73547034 59.37930058 -17.20240116 52.23214149 C-21.21522045 47.85768484 -21.21522045 47.85768484 -21.21522045 45.13422108 C-21.87522045 45.13422108 -22.53522045 45.13422108 -23.21522045 45.13422108 C-27.40318909 36.06028902 -27.46650764 26.56295394 -24.21522045 17.13422108 C-20.46520967 10.53937453 -13.97207283 2.86559322 -6.36954087 0.57913333 C-4.18197175 0.12735452 -2.23155742 0.00552302 0 0 Z " fill="#1159FE" transform="translate(541.215220451355,311.86577892303467)"/>
<path d="M0 0 C0.495 1.485 0.495 1.485 1 3 C-0.07763672 4.68041992 -0.07763672 4.68041992 -1.8046875 6.54296875 C-2.45405273 7.24728027 -3.10341797 7.9515918 -3.77246094 8.67724609 C-7.85068953 12.92979616 -11.96015868 17.14458272 -16.125 21.3125 C-17.00542969 22.20517578 -17.88585937 23.09785156 -18.79296875 24.01757812 C-20.07494141 25.30245117 -20.07494141 25.30245117 -21.3828125 26.61328125 C-22.14996582 27.38454346 -22.91711914 28.15580566 -23.70751953 28.95043945 C-26.0105675 31.00944773 -28.33006954 32.46307813 -31 34 C-32.47991657 35.350779 -33.91948728 36.74726651 -35.3125 38.1875 C-36.35857422 39.26064453 -36.35857422 39.26064453 -37.42578125 40.35546875 C-37.94527344 40.89816406 -38.46476563 41.44085937 -39 42 C-39.66 41.67 -40.32 41.34 -41 41 C-27.47 27.47 -13.94 13.94 0 0 Z " fill="#1D60FE" transform="translate(575,498)"/>
<path d="M0 0 C-0.33 0.99 -0.66 1.98 -1 3 C-1.66 3 -2.32 3 -3 3 C-3.32653564 3.81549316 -3.32653564 3.81549316 -3.65966797 4.64746094 C-5.45086778 7.79135918 -7.88276581 10.12947667 -10.4453125 12.640625 C-10.97518768 13.16767029 -11.50506287 13.69471558 -12.05099487 14.23773193 C-13.73767825 15.91325675 -15.43119564 17.58167722 -17.125 19.25 C-18.27259388 20.38755851 -19.41973461 21.52557436 -20.56640625 22.6640625 C-23.37238137 25.44803465 -26.18450464 28.2256576 -29 31 C-29.33 30.01 -29.66 29.02 -30 28 C-26.05534383 24.00602615 -22.10425446 20.01857403 -18.14697266 16.03710938 C-16.80076671 14.68082557 -15.45635851 13.32275497 -14.11376953 11.96289062 C-12.18728284 10.01223399 -10.25449117 8.06802606 -8.3203125 6.125 C-7.41709763 5.20630127 -7.41709763 5.20630127 -6.49563599 4.26904297 C-2.22774341 0 -2.22774341 0 0 0 Z " fill="#2967FE" transform="translate(380,560)"/>
<path d="M0 0 C0.99 0.33 1.98 0.66 3 1 C-6.24 10.24 -15.48 19.48 -25 29 C-25.33 28.01 -25.66 27.02 -26 26 C-17.42 17.42 -8.84 8.84 0 0 Z " fill="#2564FE" transform="translate(331,607)"/>
<path d="M0 0 C4.057041 0.53039297 5.94844566 2.57643552 8.75 5.4375 C9.54921875 6.24058594 10.3484375 7.04367187 11.171875 7.87109375 C13 10 13 10 13 12 C13.639375 12.2475 14.27875 12.495 14.9375 12.75 C17 14 17 14 17.62890625 16.078125 C17.75136719 16.71234375 17.87382812 17.3465625 18 18 C13.46334263 14.2698595 9.22058878 10.32946434 5.0625 6.1875 C4.31746216 5.44922974 4.31746216 5.44922974 3.55737305 4.69604492 C0 1.12375366 0 1.12375366 0 0 Z " fill="#2766FE" transform="translate(489,577)"/>
<path d="M0 0 C4.02455812 0.53171838 5.81522811 2.50221822 8.5625 5.375 C9.32691406 6.16648437 10.09132813 6.95796875 10.87890625 7.7734375 C11.57886719 8.50820313 12.27882813 9.24296875 13 10 C13.58652344 10.54914062 14.17304688 11.09828125 14.77734375 11.6640625 C16 13 16 13 16 15 C16.66 15.33 17.32 15.66 18 16 C15 16 15 16 13.2824707 14.63891602 C12.66976318 14.01686279 12.05705566 13.39480957 11.42578125 12.75390625 C10.75869141 12.08166016 10.09160156 11.40941406 9.40429688 10.71679688 C8.71400391 10.00587891 8.02371094 9.29496094 7.3125 8.5625 C6.2596582 7.50192383 6.2596582 7.50192383 5.18554688 6.41992188 C0 1.15374453 0 1.15374453 0 0 Z " fill="#2766FE" transform="translate(472,560)"/>
<path d="M0 0 C3.90285767 1.58667578 6.33520982 4.13350481 9.25 7.125 C10.14203125 8.03507812 11.0340625 8.94515625 11.953125 9.8828125 C12.62859375 10.58148438 13.3040625 11.28015625 14 12 C13.01 12.33 12.02 12.66 11 13 C9.82737096 11.88121617 8.66204862 10.75476949 7.5 9.625 C6.52546875 8.68527344 6.52546875 8.68527344 5.53125 7.7265625 C4 6 4 6 4 4 C2.68 3.34 1.36 2.68 0 2 C0 1.34 0 0.68 0 0 Z " fill="#1E62FE" transform="translate(455,464)"/>
<path d="M0 0 C0.99 0.33 1.98 0.66 3 1 C-0.63 4.63 -4.26 8.26 -8 12 C-8.66 11.34 -9.32 10.68 -10 10 C-6.7 6.7 -3.4 3.4 0 0 Z " fill="#2565FE" transform="translate(297,641)"/>
<path d="M0 0 C4.52615993 3.67832017 8.39424999 7.41086363 12 12 C9 12 9 12 6.73828125 10.13671875 C5.93777344 9.32847656 5.13726562 8.52023437 4.3125 7.6875 C3.50425781 6.88699219 2.69601562 6.08648438 1.86328125 5.26171875 C0 3 0 3 0 0 Z " fill="#2A68FE" transform="translate(502,510)"/>
<path d="M0 0 C4.52615993 3.67832017 8.39424999 7.41086363 12 12 C9 12 9 12 6.73828125 10.13671875 C5.93777344 9.32847656 5.13726562 8.52023437 4.3125 7.6875 C3.50425781 6.88699219 2.69601562 6.08648437 1.86328125 5.26171875 C0 3 0 3 0 0 Z " fill="#2666FE" transform="translate(469,477)"/>
<path d="M0 0 C0.66 0 1.32 0 2 0 C1.67 4.95 1.34 9.9 1 15 C0.34 15 -0.32 15 -1 15 C-1.02703381 13.06257659 -1.04641125 11.12504521 -1.0625 9.1875 C-1.07410156 8.10855469 -1.08570313 7.02960938 -1.09765625 5.91796875 C-1 3 -1 3 0 0 Z " fill="#2361FD" transform="translate(516,334)"/>
<path d="M0 0 C4.13621084 3.3810038 7.81316569 6.66590534 11 11 C7.46180427 10.42073787 5.74971757 9.15676523 3.25 6.625 C2.63640625 6.01914062 2.0228125 5.41328125 1.390625 4.7890625 C0 3 0 3 0 0 Z " fill="#2A69FE" transform="translate(481,489)"/>
<path d="M0 0 C3.62613199 0.56959153 5.25517741 1.92374534 7.75 4.5625 C8.36359375 5.20316406 8.9771875 5.84382812 9.609375 6.50390625 C10.06828125 6.99761719 10.5271875 7.49132812 11 8 C10.34 8.66 9.68 9.32 9 10 C7.49702124 8.52386015 5.99768715 7.04400843 4.5 5.5625 C3.6646875 4.73878906 2.829375 3.91507813 1.96875 3.06640625 C0 1 0 1 0 0 Z " fill="#2B69FE" transform="translate(438,526)"/>
<path d="M0 0 C1.32 0 2.64 0 4 0 C5.703125 1.75 5.703125 1.75 7.25 4 C8.03117187 5.11375 8.03117187 5.11375 8.828125 6.25 C9.21484375 6.8275 9.6015625 7.405 10 8 C7 8 7 8 5.17578125 6.50390625 C4.56089844 5.86324219 3.94601562 5.22257813 3.3125 4.5625 C2.68988281 3.92441406 2.06726563 3.28632812 1.42578125 2.62890625 C0 1 0 1 0 0 Z " fill="#2767FE" transform="translate(456,544)"/>
<path d="M0 0 C1.12894876 0.93274109 2.25300876 1.87140122 3.375 2.8125 C4.00148438 3.33457031 4.62796875 3.85664063 5.2734375 4.39453125 C7 6 7 6 9 9 C6 9 6 9 4.39453125 7.79296875 C3.87246094 7.26316406 3.35039062 6.73335938 2.8125 6.1875 C2.01779297 5.40439453 2.01779297 5.40439453 1.20703125 4.60546875 C0 3 0 3 0 0 Z " fill="#1D60FE" transform="translate(446,454)"/>
<path d="M0 0 C2.25 0.125 2.25 0.125 5 1 C7.3125 4.0625 7.3125 4.0625 9 7 C6 7 6 7 4.39453125 5.46875 C3.87246094 4.8190625 3.35039062 4.169375 2.8125 3.5 C2.28269531 2.8503125 1.75289063 2.200625 1.20703125 1.53125 C0.80871094 1.0259375 0.41039062 0.520625 0 0 Z " fill="#2968FE" transform="translate(448,536)"/>
<path d="M0 0 C1.17539996 0.92652701 2.34010577 1.86663387 3.5 2.8125 C4.1496875 3.33457031 4.799375 3.85664062 5.46875 4.39453125 C7 6 7 6 7 9 C5.82460004 8.07347299 4.65989423 7.13336613 3.5 6.1875 C2.52546875 5.40439453 2.52546875 5.40439453 1.53125 4.60546875 C0 3 0 3 0 0 Z " fill="#2E6BFE" transform="translate(514,522)"/>
<path d="M0 0 C0.66 0.66 1.32 1.32 2 2 C-4.4 6.06153846 -4.4 6.06153846 -7.4375 5.75 C-7.953125 5.5025 -8.46875 5.255 -9 5 C-8.01 5 -7.02 5 -6 5 C-6 4.34 -6 3.68 -6 3 C-4.02 2.01 -2.04 1.02 0 0 Z " fill="#2E6BFE" transform="translate(784,579)"/>
<path d="M0 0 C1.14926266 0.95421808 2.29430541 1.91352045 3.4375 2.875 C4.07558594 3.40867187 4.71367187 3.94234375 5.37109375 4.4921875 C7 6 7 6 8 8 C4.21479387 7.45925627 2.40822445 5.92427254 0 3 C0 2.01 0 1.02 0 0 Z " fill="#2C6AFE" transform="translate(494,502)"/>
<path d="M0 0 C0.33 1.32 0.66 2.64 1 4 C-0.65 5.32 -2.3 6.64 -4 8 C-4.66 7.34 -5.32 6.68 -6 6 C-5.34 6 -4.68 6 -4 6 C-3.67 5.01 -3.34 4.02 -3 3 C-1.4375 1.3125 -1.4375 1.3125 0 0 Z " fill="#2667FE" transform="translate(701,371)"/>
<path d="M0 0 C5.94 0.99 5.94 0.99 12 2 C12 2.33 12 2.66 12 3 C8.04 3 4.08 3 0 3 C0 2.01 0 1.02 0 0 Z " fill="#205FFF" transform="translate(246,674)"/>
<path d="M0 0 C-1.39332574 3.36720387 -2.9789286 4.9859524 -6 7 C-6 4 -6 4 -4.125 1.8125 C-2 0 -2 0 0 0 Z " fill="#2363FE" transform="translate(276,664)"/>
<path d="M0 0 C3.86107457 2.57404971 3.94319692 4.61020259 5 9 C4.01 9 3.02 9 2 9 C1.34 6.03 0.68 3.06 0 0 Z " fill="#2968FE" transform="translate(792,322)"/>
<path d="M0 0 C0.66 0.66 1.32 1.32 2 2 C-0.97 4.475 -0.97 4.475 -4 7 C-4 4 -4 4 -2 1.8125 C-1.34 1.214375 -0.68 0.61625 0 0 Z " fill="#2866FE" transform="translate(348,590)"/>
<path d="M0 0 C-1.39332574 3.36720387 -2.9789286 4.9859524 -6 7 C-5.37162381 3.35541809 -4.14650034 0 0 0 Z " fill="#2F6BFE" transform="translate(393,547)"/>
<path d="M0 0 C2.62187494 1.04874998 3.79371361 1.64931313 5.25 4.125 C5.4975 4.74375 5.745 5.3625 6 6 C2.34683329 4.75023244 1.21934164 4.32901247 -1 1 C-0.67 0.67 -0.34 0.34 0 0 Z " fill="#3974FE" transform="translate(525,362)"/>
</svg>
